<?xml version="1.0" standalone="no"?><svg xmlns="http://www.w3.org/2000/svg" viewBox="0 0 1440 320"><path fill="#0099ff" fill-opacity="1" d="M0,160L20,154.7C40,149,80,139,120,144C160,149,200,171,240,165.3C280,160,320,128,360,138.7C400,149,440,203,480,218.7C520,235,560,213,600,213.3C640,213,680,235,720,234.7C760,235,800,213,840,192C880,171,920,149,960,170.7C1000,192,1040,256,1080,240C1120,224,1160,128,1200,117.3C1240,107,1280,181,1320,192C1360,203,1400,149,1420,122.7L1440,96L1440,320L1420,320C1400,320,1360,320,1320,320C1280,320,1240,320,1200,320C1160,320,1120,320,1080,320C1040,320,1000,320,960,320C920,320,880,320,840,320C800,320,760,320,720,320C680,320,640,320,600,320C560,320,520,320,480,320C440,320,400,320,360,320C320,320,280,320,240,320C200,320,160,320,120,320C80,320,40,320,20,320L0,320Z"></path></svg>