<?xml version="1.0" standalone="no"?><svg xmlns="http://www.w3.org/2000/svg" viewBox="0 0 1440 320"><path fill="#0099ff" fill-opacity="1" d="M0,0L20,26.7C40,53,80,107,120,154.7C160,203,200,245,240,250.7C280,256,320,224,360,229.3C400,235,440,277,480,293.3C520,309,560,299,600,293.3C640,288,680,288,720,288C760,288,800,288,840,261.3C880,235,920,181,960,149.3C1000,117,1040,107,1080,122.7C1120,139,1160,181,1200,181.3C1240,181,1280,139,1320,149.3C1360,160,1400,224,1420,256L1440,288L1440,320L1420,320C1400,320,1360,320,1320,320C1280,320,1240,320,1200,320C1160,320,1120,320,1080,320C1040,320,1000,320,960,320C920,320,880,320,840,320C800,320,760,320,720,320C680,320,640,320,600,320C560,320,520,320,480,320C440,320,400,320,360,320C320,320,280,320,240,320C200,320,160,320,120,320C80,320,40,320,20,320L0,320Z"></path></svg>